<?xml version="1.0" encoding="iso-8859-1"?>
<!-- Generator: Adobe Illustrator 19.0.0, SVG Export Plug-In . SVG Version: 6.00 Build 0)  -->
<svg version="1.1" id="Layer_1" xmlns="http://www.w3.org/2000/svg" xmlns:xlink="http://www.w3.org/1999/xlink" x="0px" y="0px"
	 viewBox="0 0 512 512" style="enable-background:new 0 0 512 512;" xml:space="preserve">
<polygon style="fill:#F4411E;" points="372.124,237.526 372.124,332.536 303.505,332.536 303.505,401.155 208.495,401.155 
	208.495,332.536 139.876,332.536 139.876,237.526 208.495,237.526 208.495,168.907 303.505,168.907 303.505,237.526 "/>
<g>
	<rect x="145.155" y="10.557" style="fill:#72787C;" width="221.691" height="36.948"/>
	<rect x="424.907" y="459.217" style="fill:#72787C;" width="42.227" height="42.227"/>
	<rect x="44.866" y="459.217" style="fill:#72787C;" width="42.227" height="42.227"/>
</g>
<path style="fill:#AFB6BB;" d="M504.082,459.217h-36.948h-42.227H87.093H44.866H7.918V110.845h496.165V459.217z M372.124,332.536
	v-95.01h-68.619v-68.619h-95.01v68.619h-68.619v95.01h68.619v68.619h95.01v-68.619H372.124z"/>
<path d="M512,102.928H337.814V55.423h36.948V2.639H137.237v52.784h36.948v47.505H0v364.206h36.948v42.227H95.01v-42.227H416.99
	v42.227h58.062v-42.227H512V102.928z M153.072,18.474h205.856v21.113H153.072V18.474z M190.021,55.423h131.959v47.505H190.021
	V55.423z M79.175,493.526H52.784v-26.392h26.392V493.526z M459.217,493.526h-26.392v-26.392h26.392V493.526z M15.835,451.299
	V176.825h150.433V160.99H15.835v-42.227h480.33v42.227H345.732v15.835h150.433v274.474H15.835z"/>
<path d="M311.423,160.99H200.577v68.619h-68.619v110.845h68.619v68.619h110.845v-68.619h68.619V229.608h-68.619V160.99z
	 M364.206,245.443v79.175h-68.619v68.619h-79.175v-68.619h-68.619v-79.175h68.619v-68.619h79.175v68.619H364.206z"/>
<g>
</g>
<g>
</g>
<g>
</g>
<g>
</g>
<g>
</g>
<g>
</g>
<g>
</g>
<g>
</g>
<g>
</g>
<g>
</g>
<g>
</g>
<g>
</g>
<g>
</g>
<g>
</g>
<g>
</g>
</svg>
